<svg width="64" height="64" viewBox="0 0 64 64" fill="none" xmlns="http://www.w3.org/2000/svg">
<path d="M32 62C48.5684 62 62 48.5684 62 32C62 15.4314 48.5684 2 32 2C15.4314 2 2 15.4314 2 32C2 48.5684 15.4314 62 32 62Z" stroke="white" stroke-width="4" stroke-linecap="round" stroke-linejoin="round"/>
<path d="M38.9998 53V47.411C39.0748 46.4825 38.9461 45.5489 38.6218 44.6726C38.2978 43.7963 37.7857 42.9971 37.12 42.3284C43.3999 41.6468 49.9999 39.3293 49.9999 28.6967C49.9993 25.9777 48.9253 23.363 46.9999 21.3938C47.9116 19.0151 47.8471 16.3858 46.8199 14.0522C46.8199 14.0522 44.4598 13.3706 38.9998 16.9343C34.4158 15.7246 29.584 15.7246 24.9999 16.9343C19.5399 13.3706 17.1799 14.0522 17.1799 14.0522C16.1526 16.3858 16.0882 19.0151 16.9999 21.3938C15.0602 23.3776 13.985 26.0159 13.9999 28.7549C13.9999 39.3098 20.5999 41.6273 26.8798 42.3866C26.2219 43.0487 25.7144 43.8383 25.3905 44.7041C25.0666 45.5696 24.9335 46.4918 24.9999 47.411V53" stroke="white" stroke-width="4" stroke-linecap="round" stroke-linejoin="round"/>
<path d="M25 49.1053C19 51.0004 14 49.1053 11 43.2631" stroke="white" stroke-width="4" stroke-linecap="round" stroke-linejoin="round"/>
</svg>
