<svg width="60" height="45" viewBox="0 0 60 45" fill="none" xmlns="http://www.w3.org/2000/svg">
<path d="M0 7.5C0 5.51088 0.790176 3.60322 2.1967 2.1967C3.60322 0.790176 5.51088 0 7.5 0H52.5C54.4891 0 56.3968 0.790176 57.8033 2.1967C59.2098 3.60322 60 5.51088 60 7.5V37.5C60 39.4891 59.2098 41.3968 57.8033 42.8033C56.3968 44.2098 54.4891 45 52.5 45H7.5C5.51088 45 3.60322 44.2098 2.1967 42.8033C0.790176 41.3968 0 39.4891 0 37.5V7.5ZM7.5 3.75C6.50544 3.75 5.55161 4.14509 4.84835 4.84835C4.14509 5.55161 3.75 6.50544 3.75 7.5V8.31375L30 24.0637L56.25 8.31375V7.5C56.25 6.50544 55.8549 5.55161 55.1516 4.84835C54.4484 4.14509 53.4946 3.75 52.5 3.75H7.5ZM56.25 12.6862L38.595 23.28L56.25 34.1437V12.6862ZM56.1225 38.4712L34.9725 25.455L30 28.4363L25.0275 25.455L3.8775 38.4675C4.0906 39.2655 4.56119 39.9708 5.21621 40.4739C5.87124 40.9771 6.67405 41.2499 7.5 41.25H52.5C53.3255 41.2501 54.1279 40.9778 54.7829 40.4754C55.4378 39.973 55.9087 39.2685 56.1225 38.4712ZM3.75 34.1437L21.405 23.28L3.75 12.6862V34.1437Z" fill="black"/>
</svg>
