<svg width="19" height="20" viewBox="0 0 19 20" fill="none" xmlns="http://www.w3.org/2000/svg">
<path d="M7.5 0.347634C7.62171 0.496055 7.69626 0.677474 7.71408 0.868585C7.7319 1.0597 7.69217 1.25177 7.6 1.42013C6.87692 2.74682 6.49949 4.2342 6.5025 5.74513C6.5025 10.7714 10.6 14.8414 15.65 14.8414C16.31 14.8405 16.9487 14.7739 17.5662 14.6414C17.7552 14.601 17.9518 14.6169 18.1317 14.6871C18.3117 14.7573 18.4671 14.8787 18.5788 15.0364C18.6969 15.2005 18.7571 15.3991 18.7501 15.6011C18.7431 15.8032 18.6692 15.9971 18.54 16.1526C17.5595 17.3569 16.3227 18.3271 14.9197 18.9927C13.5167 19.6583 11.9829 20.0025 10.43 20.0001C4.6675 20.0001 0 15.3576 0 9.63763C0 5.33263 2.6425 1.64013 6.405 0.0751341C6.59236 -0.0044908 6.80054 -0.0209674 6.99809 0.0281943C7.19564 0.0773561 7.37182 0.189484 7.5 0.347634ZM6.0725 1.63888C4.62584 2.41503 3.41646 3.56857 2.57284 4.97694C1.72922 6.38532 1.28289 7.99592 1.28125 9.63763C1.28125 14.6626 5.38 18.7326 10.43 18.7326C11.6393 18.7345 12.8369 18.4966 13.9537 18.0327C15.0704 17.5688 16.0841 16.8882 16.9362 16.0301C16.5146 16.0826 16.0858 16.1089 15.65 16.1089C9.8875 16.1089 5.22125 11.4664 5.22125 5.74638C5.22125 4.28763 5.52375 2.89888 6.0725 1.63888Z" fill="white"/>
</svg>
