<svg width="89" height="100" viewBox="0 0 89 100" fill="none" xmlns="http://www.w3.org/2000/svg">
<path d="M88.0943 29.111C88.0937 27.4461 87.7376 25.9749 87.0175 24.7126C86.3102 23.4707 85.2509 22.43 83.8301 21.6072C72.1017 14.8446 60.3619 8.10261 48.6374 1.33306C45.4765 -0.49178 42.4117 -0.424908 39.2743 1.42613C34.606 4.1789 11.2337 17.5694 4.2691 21.6035C1.40086 23.2642 0.00517048 25.8053 0.00448109 29.1079C0 42.708 0.00448109 56.3081 0 69.9082C0 71.5366 0.341597 72.9795 1.02996 74.2229C1.73763 75.502 2.81171 76.5713 4.2653 77.4127C11.2303 81.4467 34.6057 94.8362 39.2729 97.59C42.4117 99.4421 45.4765 99.5083 48.6384 97.6831C60.3633 90.9132 72.1038 84.1712 83.8339 77.4086C85.2875 76.5675 86.3615 75.4976 87.0692 74.2194C87.7565 72.9757 88.0988 71.5332 88.0988 69.9045C88.0988 69.9045 88.0988 42.7115 88.0943 29.111Z" fill="#A179DC"/>
<path d="M44.1843 49.3755L1.03003 74.2228C1.7377 75.502 2.81178 76.5712 4.26537 77.4126C11.2304 81.4466 34.6058 94.8361 39.273 97.5899C42.4118 99.442 45.4765 99.5082 48.6385 97.683C60.3634 90.9131 72.1038 84.1711 83.8339 77.4085C85.2875 76.5674 86.3616 75.4975 87.0693 74.2193L44.1843 49.3755Z" fill="#280068"/>
<path d="M88.0945 29.111C88.0938 27.4461 87.7378 25.9749 87.0177 24.7126L44.1843 49.3759L87.0694 74.2195C87.7567 72.9758 88.0983 71.5332 88.099 69.9045C88.099 69.9045 88.099 42.7115 88.0945 29.111Z" fill="#390091"/>
<path d="M69.5919 40.0869V44.7314H74.2364V40.0869H76.5586V44.7314H81.2031V47.0536H76.5586V51.6977H81.2031V54.02H76.5586V58.6644H74.2364V54.02H69.5919V58.6644H67.2696V54.02H62.6255V51.6977H67.2696V47.0536H62.6255V44.7314H67.2696V40.0869H69.5919ZM74.2364 47.0533H69.5919V51.6977H74.2364V47.0533Z" fill="white"/>
<path d="M44.279 16.7618C56.3931 16.7618 66.9695 23.3408 72.6346 33.1199L72.5794 33.0258L58.3261 41.2324C55.5182 36.4779 50.3705 33.2691 44.4648 33.203L44.2786 33.2019C35.2734 33.2019 27.9726 40.5027 27.9726 49.5079C27.9697 52.3463 28.7112 55.1358 30.1232 57.598C32.9339 62.5048 38.2178 65.8143 44.279 65.8143C50.3777 65.8143 55.6916 62.4628 58.4878 57.5036L58.4199 57.6225L72.6515 65.867C67.0484 75.5634 56.6168 82.122 44.6437 82.2527L44.279 82.2547C32.1266 82.2547 21.5202 75.6351 15.8692 65.8043C13.1106 61.005 11.5322 55.4412 11.5322 49.5079C11.5322 31.4229 26.193 16.7615 44.2786 16.7615L44.279 16.7618Z" fill="white"/>
</svg>
